{
    "asset" : {
        "generator" : "Khronos glTF Blender I/O v3.4.50",
        "version" : "2.0"
    },
    "scene" : 0,
    "scenes" : [
        {
            "name" : "Scene",
            "nodes" : [
                0,
                1,
                2,
                3,
                4,
                5
            ]
        }
    ],
    "nodes" : [
        {
            "mesh" : 0,
            "name" : "Bishop",
            "translation" : [
                6.361542701721191,
                0.9224780797958374,
                2.580820083618164
            ]
        },
        {
            "mesh" : 1,
            "name" : "King",
            "translation" : [
                6.45344352722168,
                0.9003230333328247,
                0.8119950294494629
            ]
        },
        {
            "mesh" : 2,
            "name" : "Knight",
            "translation" : [
                6.358880043029785,
                0.8958325386047363,
                4.36740255355835
            ]
        },
        {
            "mesh" : 3,
            "name" : "Pawn",
            "translation" : [
                4.49780797958374,
                0.905057430267334,
                6.210190773010254
            ]
        },
        {
            "mesh" : 4,
            "name" : "Queen",
            "translation" : [
                6.453393459320068,
                0.9210214614868164,
                -0.9307870268821716
            ]
        },
        {
            "mesh" : 5,
            "name" : "Rook",
            "translation" : [
                6.360591888427734,
                0.914886474609375,
                6.1771135330200195
            ]
        }
    ],
    "materials" : [
        {
            "doubleSided" : true,
            "name" : "Wood",
            "pbrMetallicRoughness" : {
                "baseColorFactor" : [
                    0.800000011920929,
                    0.800000011920929,
                    0.800000011920929,
                    1
                ],
                "metallicFactor" : 0
            }
        },
        {
            "doubleSided" : true,
            "name" : "Felt",
            "pbrMetallicRoughness" : {
                "baseColorFactor" : [
                    0.00562282744795084,
                    0.1506144106388092,
                    0,
                    1
                ],
                "metallicFactor" : 0,
                "roughnessFactor" : 0.7399722337722778
            }
        }
    ],
    "meshes" : [
        {
            "name" : "Circle.056",
            "primitives" : [
                {
                    "attributes" : {
                        "POSITION" : 0,
                        "TEXCOORD_0" : 1,
                        "NORMAL" : 2
                    },
                    "indices" : 3,
                    "material" : 0
                },
                {
                    "attributes" : {
                        "POSITION" : 4,
                        "TEXCOORD_0" : 5,
                        "NORMAL" : 6
                    },
                    "indices" : 7,
                    "material" : 1
                }
            ]
        },
        {
            "name" : "Circle.037",
            "primitives" : [
                {
                    "attributes" : {
                        "POSITION" : 8,
                        "TEXCOORD_0" : 9,
                        "NORMAL" : 10
                    },
                    "indices" : 11,
                    "material" : 0
                },
                {
                    "attributes" : {
                        "POSITION" : 12,
                        "TEXCOORD_0" : 13,
                        "NORMAL" : 14
                    },
                    "indices" : 7,
                    "material" : 1
                }
            ]
        },
        {
            "name" : "Circle.058",
            "primitives" : [
                {
                    "attributes" : {
                        "POSITION" : 15,
                        "TEXCOORD_0" : 16,
                        "NORMAL" : 17
                    },
                    "indices" : 18,
                    "material" : 0
                },
                {
                    "attributes" : {
                        "POSITION" : 19,
                        "TEXCOORD_0" : 20,
                        "NORMAL" : 21
                    },
                    "indices" : 7,
                    "material" : 1
                }
            ]
        },
        {
            "name" : "Circle.050",
            "primitives" : [
                {
                    "attributes" : {
                        "POSITION" : 22,
                        "TEXCOORD_0" : 23,
                        "NORMAL" : 24
                    },
                    "indices" : 25,
                    "material" : 0
                },
                {
                    "attributes" : {
                        "POSITION" : 26,
                        "TEXCOORD_0" : 27,
                        "NORMAL" : 28
                    },
                    "indices" : 29,
                    "material" : 1
                }
            ]
        },
        {
            "name" : "Cylinder.007",
            "primitives" : [
                {
                    "attributes" : {
                        "POSITION" : 30,
                        "TEXCOORD_0" : 31,
                        "NORMAL" : 32
                    },
                    "indices" : 33,
                    "material" : 0
                },
                {
                    "attributes" : {
                        "POSITION" : 34,
                        "TEXCOORD_0" : 35,
                        "NORMAL" : 36
                    },
                    "indices" : 7,
                    "material" : 1
                }
            ]
        },
        {
            "name" : "Cylinder.006",
            "primitives" : [
                {
                    "attributes" : {
                        "POSITION" : 37,
                        "TEXCOORD_0" : 38,
                        "NORMAL" : 39
                    },
                    "indices" : 40,
                    "material" : 0
                },
                {
                    "attributes" : {
                        "POSITION" : 41,
                        "TEXCOORD_0" : 42,
                        "NORMAL" : 43
                    },
                    "indices" : 7,
                    "material" : 1
                }
            ]
        }
    ],
    "accessors" : [
        {
            "bufferView" : 0,
            "componentType" : 5126,
            "count" : 9394,
            "max" : [
                0.5867847204208374,
                2.6589934825897217,
                0.5867847204208374
            ],
            "min" : [
                -0.5867846608161926,
                0,
                -0.5867846012115479
            ],
            "type" : "VEC3"
        },
        {
            "bufferView" : 1,
            "componentType" : 5126,
            "count" : 9394,
            "type" : "VEC2"
        },
        {
            "bufferView" : 2,
            "componentType" : 5126,
            "count" : 9394,
            "type" : "VEC3"
        },
        {
            "bufferView" : 3,
            "componentType" : 5123,
            "count" : 33168,
            "type" : "SCALAR"
        },
        {
            "bufferView" : 4,
            "componentType" : 5126,
            "count" : 178,
            "max" : [
                0.5811911225318909,
                0.04493236914277077,
                0.5811911225318909
            ],
            "min" : [
                -0.5811911225318909,
                -0.018635036423802376,
                -0.5811911225318909
            ],
            "type" : "VEC3"
        },
        {
            "bufferView" : 5,
            "componentType" : 5126,
            "count" : 178,
            "type" : "VEC2"
        },
        {
            "bufferView" : 6,
            "componentType" : 5126,
            "count" : 178,
            "type" : "VEC3"
        },
        {
            "bufferView" : 7,
            "componentType" : 5123,
            "count" : 1056,
            "type" : "SCALAR"
        },
        {
            "bufferView" : 8,
            "componentType" : 5126,
            "count" : 2397,
            "max" : [
                0.6336809396743774,
                3.212550640106201,
                0.6336807012557983
            ],
            "min" : [
                -0.6336808800697327,
                0.024667739868164062,
                -0.6336808204650879
            ],
            "type" : "VEC3"
        },
        {
            "bufferView" : 9,
            "componentType" : 5126,
            "count" : 2397,
            "type" : "VEC2"
        },
        {
            "bufferView" : 10,
            "componentType" : 5126,
            "count" : 2397,
            "type" : "VEC3"
        },
        {
            "bufferView" : 11,
            "componentType" : 5123,
            "count" : 11280,
            "type" : "SCALAR"
        },
        {
            "bufferView" : 12,
            "componentType" : 5126,
            "count" : 178,
            "max" : [
                0.6284714341163635,
                0.06873863190412521,
                0.6284714937210083
            ],
            "min" : [
                -0.6284714341163635,
                1.1920928244535389e-07,
                -0.6284716725349426
            ],
            "type" : "VEC3"
        },
        {
            "bufferView" : 13,
            "componentType" : 5126,
            "count" : 178,
            "type" : "VEC2"
        },
        {
            "bufferView" : 14,
            "componentType" : 5126,
            "count" : 178,
            "type" : "VEC3"
        },
        {
            "bufferView" : 15,
            "componentType" : 5126,
            "count" : 12899,
            "max" : [
                0.5899285078048706,
                2.252580165863037,
                0.4503079652786255
            ],
            "min" : [
                -0.47124671936035156,
                0.03061044216156006,
                -0.45030874013900757
            ],
            "type" : "VEC3"
        },
        {
            "bufferView" : 16,
            "componentType" : 5126,
            "count" : 12899,
            "type" : "VEC2"
        },
        {
            "bufferView" : 17,
            "componentType" : 5126,
            "count" : 12899,
            "type" : "VEC3"
        },
        {
            "bufferView" : 18,
            "componentType" : 5123,
            "count" : 55968,
            "type" : "SCALAR"
        },
        {
            "bufferView" : 19,
            "componentType" : 5126,
            "count" : 178,
            "max" : [
                0.43840092420578003,
                0.04794982448220253,
                0.4384003281593323
            ],
            "min" : [
                -0.43840092420578003,
                1.1920928244535389e-07,
                -0.43840137124061584
            ],
            "type" : "VEC3"
        },
        {
            "bufferView" : 20,
            "componentType" : 5126,
            "count" : 178,
            "type" : "VEC2"
        },
        {
            "bufferView" : 21,
            "componentType" : 5126,
            "count" : 178,
            "type" : "VEC3"
        },
        {
            "bufferView" : 22,
            "componentType" : 5126,
            "count" : 4362,
            "max" : [
                0.43289750814437866,
                1.3938528299331665,
                0.43289706110954285
            ],
            "min" : [
                -0.43289798498153687,
                0.013444601558148861,
                -0.43289798498153687
            ],
            "type" : "VEC3"
        },
        {
            "bufferView" : 23,
            "componentType" : 5126,
            "count" : 4362,
            "type" : "VEC2"
        },
        {
            "bufferView" : 24,
            "componentType" : 5126,
            "count" : 4362,
            "type" : "VEC3"
        },
        {
            "bufferView" : 25,
            "componentType" : 5123,
            "count" : 22656,
            "type" : "SCALAR"
        },
        {
            "bufferView" : 26,
            "componentType" : 5126,
            "count" : 706,
            "max" : [
                0.4226226806640625,
                0.046283457428216934,
                0.42262235283851624
            ],
            "min" : [
                -0.42262327671051025,
                0,
                -0.42262327671051025
            ],
            "type" : "VEC3"
        },
        {
            "bufferView" : 27,
            "componentType" : 5126,
            "count" : 706,
            "type" : "VEC2"
        },
        {
            "bufferView" : 28,
            "componentType" : 5126,
            "count" : 706,
            "type" : "VEC3"
        },
        {
            "bufferView" : 29,
            "componentType" : 5123,
            "count" : 4224,
            "type" : "SCALAR"
        },
        {
            "bufferView" : 30,
            "componentType" : 5126,
            "count" : 1983,
            "max" : [
                0.6186232566833496,
                3.0332448482513428,
                0.6186231374740601
            ],
            "min" : [
                -0.6186232566833496,
                0,
                -0.6186230182647705
            ],
            "type" : "VEC3"
        },
        {
            "bufferView" : 31,
            "componentType" : 5126,
            "count" : 1983,
            "type" : "VEC2"
        },
        {
            "bufferView" : 32,
            "componentType" : 5126,
            "count" : 1983,
            "type" : "VEC3"
        },
        {
            "bufferView" : 33,
            "componentType" : 5123,
            "count" : 9120,
            "type" : "SCALAR"
        },
        {
            "bufferView" : 34,
            "componentType" : 5126,
            "count" : 178,
            "max" : [
                0.6138362288475037,
                0.04723106324672699,
                0.6138362288475037
            ],
            "min" : [
                -0.6138362288475037,
                -0.01990676485002041,
                -0.6138362884521484
            ],
            "type" : "VEC3"
        },
        {
            "bufferView" : 35,
            "componentType" : 5126,
            "count" : 178,
            "type" : "VEC2"
        },
        {
            "bufferView" : 36,
            "componentType" : 5126,
            "count" : 178,
            "type" : "VEC3"
        },
        {
            "bufferView" : 37,
            "componentType" : 5126,
            "count" : 9440,
            "max" : [
                0.5634779930114746,
                1.989442229270935,
                0.5634778738021851
            ],
            "min" : [
                -0.5634778738021851,
                0.00048371459706686437,
                -0.5634778738021851
            ],
            "type" : "VEC3"
        },
        {
            "bufferView" : 38,
            "componentType" : 5126,
            "count" : 9440,
            "type" : "VEC2"
        },
        {
            "bufferView" : 39,
            "componentType" : 5126,
            "count" : 9440,
            "type" : "VEC3"
        },
        {
            "bufferView" : 40,
            "componentType" : 5123,
            "count" : 33936,
            "type" : "SCALAR"
        },
        {
            "bufferView" : 41,
            "componentType" : 5126,
            "count" : 178,
            "max" : [
                0.5544566512107849,
                0.04084204509854317,
                0.5544566512107849
            ],
            "min" : [
                -0.5544566512107849,
                -0.019801141694188118,
                -0.5544566512107849
            ],
            "type" : "VEC3"
        },
        {
            "bufferView" : 42,
            "componentType" : 5126,
            "count" : 178,
            "type" : "VEC2"
        },
        {
            "bufferView" : 43,
            "componentType" : 5126,
            "count" : 178,
            "type" : "VEC3"
        }
    ],
    "bufferViews" : [
        {
            "buffer" : 0,
            "byteLength" : 112728,
            "byteOffset" : 0,
            "target" : 34962
        },
        {
            "buffer" : 0,
            "byteLength" : 75152,
            "byteOffset" : 112728,
            "target" : 34962
        },
        {
            "buffer" : 0,
            "byteLength" : 112728,
            "byteOffset" : 187880,
            "target" : 34962
        },
        {
            "buffer" : 0,
            "byteLength" : 66336,
            "byteOffset" : 300608,
            "target" : 34963
        },
        {
            "buffer" : 0,
            "byteLength" : 2136,
            "byteOffset" : 366944,
            "target" : 34962
        },
        {
            "buffer" : 0,
            "byteLength" : 1424,
            "byteOffset" : 369080,
            "target" : 34962
        },
        {
            "buffer" : 0,
            "byteLength" : 2136,
            "byteOffset" : 370504,
            "target" : 34962
        },
        {
            "buffer" : 0,
            "byteLength" : 2112,
            "byteOffset" : 372640,
            "target" : 34963
        },
        {
            "buffer" : 0,
            "byteLength" : 28764,
            "byteOffset" : 374752,
            "target" : 34962
        },
        {
            "buffer" : 0,
            "byteLength" : 19176,
            "byteOffset" : 403516,
            "target" : 34962
        },
        {
            "buffer" : 0,
            "byteLength" : 28764,
            "byteOffset" : 422692,
            "target" : 34962
        },
        {
            "buffer" : 0,
            "byteLength" : 22560,
            "byteOffset" : 451456,
            "target" : 34963
        },
        {
            "buffer" : 0,
            "byteLength" : 2136,
            "byteOffset" : 474016,
            "target" : 34962
        },
        {
            "buffer" : 0,
            "byteLength" : 1424,
            "byteOffset" : 476152,
            "target" : 34962
        },
        {
            "buffer" : 0,
            "byteLength" : 2136,
            "byteOffset" : 477576,
            "target" : 34962
        },
        {
            "buffer" : 0,
            "byteLength" : 154788,
            "byteOffset" : 479712,
            "target" : 34962
        },
        {
            "buffer" : 0,
            "byteLength" : 103192,
            "byteOffset" : 634500,
            "target" : 34962
        },
        {
            "buffer" : 0,
            "byteLength" : 154788,
            "byteOffset" : 737692,
            "target" : 34962
        },
        {
            "buffer" : 0,
            "byteLength" : 111936,
            "byteOffset" : 892480,
            "target" : 34963
        },
        {
            "buffer" : 0,
            "byteLength" : 2136,
            "byteOffset" : 1004416,
            "target" : 34962
        },
        {
            "buffer" : 0,
            "byteLength" : 1424,
            "byteOffset" : 1006552,
            "target" : 34962
        },
        {
            "buffer" : 0,
            "byteLength" : 2136,
            "byteOffset" : 1007976,
            "target" : 34962
        },
        {
            "buffer" : 0,
            "byteLength" : 52344,
            "byteOffset" : 1010112,
            "target" : 34962
        },
        {
            "buffer" : 0,
            "byteLength" : 34896,
            "byteOffset" : 1062456,
            "target" : 34962
        },
        {
            "buffer" : 0,
            "byteLength" : 52344,
            "byteOffset" : 1097352,
            "target" : 34962
        },
        {
            "buffer" : 0,
            "byteLength" : 45312,
            "byteOffset" : 1149696,
            "target" : 34963
        },
        {
            "buffer" : 0,
            "byteLength" : 8472,
            "byteOffset" : 1195008,
            "target" : 34962
        },
        {
            "buffer" : 0,
            "byteLength" : 5648,
            "byteOffset" : 1203480,
            "target" : 34962
        },
        {
            "buffer" : 0,
            "byteLength" : 8472,
            "byteOffset" : 1209128,
            "target" : 34962
        },
        {
            "buffer" : 0,
            "byteLength" : 8448,
            "byteOffset" : 1217600,
            "target" : 34963
        },
        {
            "buffer" : 0,
            "byteLength" : 23796,
            "byteOffset" : 1226048,
            "target" : 34962
        },
        {
            "buffer" : 0,
            "byteLength" : 15864,
            "byteOffset" : 1249844,
            "target" : 34962
        },
        {
            "buffer" : 0,
            "byteLength" : 23796,
            "byteOffset" : 1265708,
            "target" : 34962
        },
        {
            "buffer" : 0,
            "byteLength" : 18240,
            "byteOffset" : 1289504,
            "target" : 34963
        },
        {
            "buffer" : 0,
            "byteLength" : 2136,
            "byteOffset" : 1307744,
            "target" : 34962
        },
        {
            "buffer" : 0,
            "byteLength" : 1424,
            "byteOffset" : 1309880,
            "target" : 34962
        },
        {
            "buffer" : 0,
            "byteLength" : 2136,
            "byteOffset" : 1311304,
            "target" : 34962
        },
        {
            "buffer" : 0,
            "byteLength" : 113280,
            "byteOffset" : 1313440,
            "target" : 34962
        },
        {
            "buffer" : 0,
            "byteLength" : 75520,
            "byteOffset" : 1426720,
            "target" : 34962
        },
        {
            "buffer" : 0,
            "byteLength" : 113280,
            "byteOffset" : 1502240,
            "target" : 34962
        },
        {
            "buffer" : 0,
            "byteLength" : 67872,
            "byteOffset" : 1615520,
            "target" : 34963
        },
        {
            "buffer" : 0,
            "byteLength" : 2136,
            "byteOffset" : 1683392,
            "target" : 34962
        },
        {
            "buffer" : 0,
            "byteLength" : 1424,
            "byteOffset" : 1685528,
            "target" : 34962
        },
        {
            "buffer" : 0,
            "byteLength" : 2136,
            "byteOffset" : 1686952,
            "target" : 34962
        }
    ],
    "buffers" : [
        {
            "byteLength" : 1689088,
            "uri" : "data:application/octet-stream;base64,"
        }
    ]
}
